<svg width="152" height="64" viewBox="0 0 152 64" fill="none" xmlns="http://www.w3.org/2000/svg">
<path d="M54.2094 36.8382C54.9495 37.3434 56.1654 37.2788 56.6764 38.6004C56.9701 39.3875 58.7968 40.5916 59.0905 40.0747C59.255 39.781 57.5986 39.3229 57.2638 38.2362C57.0582 37.5548 57.0876 37.3551 56.4532 37.0614C55.8893 36.799 55.3437 36.4987 54.8203 36.1627C53.9174 35.7546 53.1153 35.153 52.4708 34.4006C52.2534 34.1539 51.3841 33.59 52.2299 35.0174C52.7931 35.7217 53.4606 36.3357 54.2094 36.8382Z" fill="#002638"/>
<path d="M73.3817 23.8226C72.7356 23.987 71.7076 23.9988 71.3082 24.592C71.1864 24.8404 71.0786 25.0953 70.9852 25.3556C70.7647 25.7593 70.5235 26.1515 70.2627 26.5304C70.0688 26.8241 69.4403 28.0106 70.3802 27.6112C70.8912 27.388 71.1907 26.1721 71.4257 25.7315C71.7984 25.225 72.3402 24.8687 72.9529 24.7271C73.2671 24.6446 73.5752 24.5406 73.8751 24.4158C74.11 24.2925 74.2275 24.0223 74.4096 23.9165C74.8971 23.6346 75.9309 24.128 75.9485 23.4525C75.9603 22.8651 74.0983 23.6287 73.3817 23.8226Z" fill="#002638"/>
<path d="M100.641 19.3586C100.776 19.5935 100.858 19.8578 100.976 20.0987C101.158 20.4628 101.88 21.3909 102.186 21.109C102.491 20.827 101.416 20.2455 101.205 19.3116C101.058 18.6831 100.541 18.3483 100.03 17.943C98.8846 17.0384 96.6526 15.1 96.353 15.4525C96.1357 15.7109 97.1342 16.4099 97.3633 16.5979C97.9507 17.0854 98.5968 17.5318 99.2136 17.99C99.7858 18.3336 100.274 18.8013 100.641 19.3586Z" fill="#002638"/>
<path d="M51.2848 18.6112C51.0784 18.7185 50.8953 18.8656 50.7461 19.0441C50.5969 19.2225 50.4845 19.4287 50.4154 19.6508C50.3439 19.8609 50.2409 20.059 50.11 20.2382C49.9396 20.5025 49.8104 20.714 49.8457 20.8784C49.863 20.9397 49.9029 20.9922 49.9573 21.0253C49.9993 21.0523 50.0483 21.0666 50.0982 21.0664C50.3684 21.0664 50.5505 20.6611 50.7444 20.2323C50.8031 20.1031 50.8618 19.9797 50.9206 19.874C51.09 19.488 51.3836 19.1696 51.7547 18.9695C52.1952 18.6875 52.6064 18.3821 53.0117 18.0649C53.5509 17.6251 54.1267 17.2321 54.7327 16.8901L54.8678 16.8196C55.602 16.4496 55.8017 16.2969 55.7665 16.1383C55.7312 15.9797 55.5374 16.0032 55.4375 16.0032C54.77 16.1385 54.1512 16.4509 53.646 16.9077C53.4169 17.0781 53.2055 17.2719 52.9999 17.454C52.7694 17.6669 52.524 17.8632 52.2657 18.0414C51.9503 18.2506 51.6227 18.4408 51.2848 18.6112Z" fill="#002638"/>
<path d="M34.4789 31.652C33.7646 32.2693 33.0026 32.8291 32.1999 33.326C31.3599 33.8077 29.5625 37.1557 29.3628 37.4377C29.1631 37.7196 28.2585 38.7299 28.6638 38.7945C29.6271 38.9296 31.2777 35.6403 31.4187 35.4347C31.838 34.824 32.3608 34.2913 32.9635 33.8605C33.451 33.5375 34.7726 32.8326 35.0957 32.0984C35.1271 32.0173 35.1308 31.928 35.1062 31.8446C35.0816 31.7612 35.03 31.6883 34.9595 31.6372C34.889 31.5862 34.8037 31.56 34.7167 31.5627C34.6297 31.5654 34.5461 31.5968 34.4789 31.652Z" fill="#002638"/>
<path d="M58.2505 26.0482C58.6088 26.2479 59.6191 27.8103 60.0479 27.4931C60.8996 26.8705 56.6293 24.1744 56.5236 24.8793C56.4414 25.3139 57.2226 25.3374 57.5456 25.6252C57.7616 25.7957 57.9985 25.9378 58.2505 26.0482Z" fill="#002638"/>
<path d="M101.671 25.954C102.211 26.2301 104.749 27.957 104.755 27.957C105.454 28.2977 106.899 28.4562 107.944 29.1317C108.424 29.4015 108.799 29.8259 109.007 30.3359C109.21 30.7559 109.463 31.1503 109.759 31.5106C109.976 31.8161 110.458 32.5092 110.675 32.8322C111.022 33.3374 111.363 33.8543 111.692 34.377C112.021 34.8998 113.184 35.6869 113.536 36.0863C113.81 36.3818 114.111 36.6512 114.435 36.891C114.475 36.9225 114.525 36.9388 114.576 36.9369C114.628 36.935 114.677 36.9151 114.714 36.8806C114.752 36.8462 114.777 36.7995 114.784 36.7488C114.791 36.698 114.779 36.6465 114.752 36.6032C114.37 36.0158 112.814 34.5063 112.661 34.2537C112.348 33.6885 111.995 33.1467 111.604 32.6325C111.263 32.1685 110.899 31.7162 110.54 31.2639C110.288 30.6793 109.994 30.1139 109.659 29.5723C109.489 29.4313 109.354 29.2492 109.184 29.1082C108.745 28.7796 108.275 28.4962 107.78 28.2624C107.157 27.9766 106.505 27.7599 105.835 27.6163C105.444 27.5438 105.071 27.3897 104.743 27.164C103.609 26.3828 101.865 25.302 101.706 25.2198C101.013 24.8673 99.7795 23.5164 99.3919 24.045C99.2274 24.3152 100.948 25.5839 101.671 25.954Z" fill="#002638"/>
<path d="M53.6927 33.1673C54.1274 32.8619 53.2874 31.6401 53.1523 31.3406C52.9115 30.8178 52.841 30.0542 52.4357 29.6607C51.9092 29.2802 51.309 29.0141 50.6736 28.8794C50.4297 28.805 50.1802 28.75 49.9276 28.715C49.4959 28.6529 49.0982 28.4458 48.7998 28.1276C48.0186 27.2818 46.744 26.3654 46.3446 26.6121C45.7102 27.0057 46.5619 27.3111 46.8556 27.4169C47.443 27.6224 48.5179 28.5916 49.2051 29.0498C49.2796 29.1045 49.3605 29.1498 49.446 29.1849C49.8278 29.3611 50.3858 29.5138 50.5267 29.5667C51.1091 29.685 51.6288 30.0106 51.9893 30.483C52.3418 31.0939 53.2228 33.4963 53.6927 33.1673Z" fill="#002638"/>
<path d="M19.3245 37.6371C19.8003 37.4022 20.1939 37.0498 20.6638 36.7913C20.9266 36.7017 21.1955 36.631 21.4685 36.5798C21.6268 36.5089 21.7765 36.4202 21.9149 36.3155C23.0622 35.6967 24.1277 34.937 25.0867 34.0541C25.6021 33.5866 26.1518 33.1586 26.7314 32.7736C27.2194 32.5308 27.672 32.2226 28.0765 31.8573C28.8577 31.0232 29.8798 30.5416 30.6962 29.7192C31.5127 28.8969 32.2587 27.8102 33.0751 26.8881C33.4627 26.3956 34.0048 26.048 34.6141 25.9013C34.9313 25.7897 35.2719 25.6017 35.6185 25.4548C35.965 25.308 36.3703 25.5018 36.2646 25.8836C36.153 26.2377 35.928 26.5453 35.6244 26.7588C35.153 27.017 34.7345 27.3618 34.3909 27.775C34.0795 28.1274 34.2029 28.5562 34.103 28.9909C33.9679 29.5783 33.6038 30.0893 33.7976 30.7178C34.4202 30.8705 34.4966 29.9953 34.6082 29.5959C34.7668 29.0085 34.7844 28.6385 35.2954 28.3036C35.8064 27.9688 36.4173 26.8998 36.9695 26.1715C37.4281 25.7452 37.9169 25.3526 38.432 24.9967C38.6336 24.8873 38.8194 24.7509 38.9842 24.5914C39.1721 24.3388 39.0488 24.1802 39.1604 23.9512C39.4177 23.5723 39.7003 23.2112 40.0062 22.8704C40.1472 22.6648 40.2294 22.3593 40.3528 22.189C40.5443 21.9657 40.7858 21.7906 41.0576 21.678C41.7038 21.3314 42.4086 21.1552 42.8903 20.5678C43.2779 20.1038 43.4307 19.4459 44.065 19.3578C44.8531 19.3814 45.6129 19.6573 46.2325 20.1449C46.9526 20.68 47.7432 21.1129 48.582 21.4313C51.0137 22.2066 52.5468 23.3109 54.309 23.8161C54.8963 23.9864 55.8244 24.2448 56.4294 24.3623C56.9287 24.4563 57.4279 24.3623 57.9331 24.468C59.1548 24.6678 60.0712 25.9248 61.1813 26.4593C61.5631 26.6472 61.7158 26.5415 61.663 26.9762C61.5741 27.2414 61.4344 27.4868 61.2518 27.6986C60.9346 28.1509 60.5528 28.5445 60.2239 28.985C59.5308 28.1274 58.2914 27.6223 57.3575 27.0584C56.4235 26.4945 55.7774 25.8425 54.9668 25.2963C54.1562 24.75 52.7994 24.5796 52.0299 23.9394C50.1268 22.4122 48.3 21.6369 50.0681 23.0877C50.5732 23.5047 50.908 23.8807 51.3368 24.2213C52.209 24.7781 53.1409 25.2352 54.1151 25.5841C54.9257 25.9835 55.1724 27.029 55.9243 27.3462C56.2002 27.4288 56.4693 27.5329 56.729 27.6575C57.1284 27.8925 57.5689 28.01 57.9742 28.2449C58.4655 28.4698 58.8904 28.8178 59.2077 29.2552C59.4192 29.6194 59.4897 30.0364 59.7305 30.4006C59.9713 30.7648 60.3179 31.1055 60.5881 31.5107C60.7681 31.9016 60.9803 32.2769 61.2224 32.6326C61.8304 33.1756 62.5031 33.6412 63.2254 34.0189C63.6894 34.3302 66.6616 36.2274 66.7497 35.6165C66.7908 35.4051 65.4163 34.9058 65.2695 34.7472C65.1226 34.5886 64.7408 34.3243 64.6175 34.1892C64.3287 33.8557 63.9723 33.5874 63.572 33.4021C62.9846 33.126 62.4677 33.2024 62.0624 32.6209C61.8773 32.3454 61.7124 32.0568 61.569 31.7574C61.5396 31.7005 61.5285 31.6358 61.5373 31.5723C61.546 31.5087 61.5742 31.4495 61.6179 31.4026C61.6616 31.3556 61.7187 31.3234 61.7814 31.3101C61.8442 31.2969 61.9095 31.3034 61.9684 31.3287C62.4089 31.5166 62.8495 31.7046 63.3135 31.8514C63.9955 31.9818 64.6495 32.2302 65.246 32.5857C65.7746 33.0144 65.9215 33.7604 66.4501 34.1951C67.1197 34.7825 67.6777 34.6709 67.296 33.9601C67.1139 33.6312 66.8437 33.4432 66.7086 33.1378C66.699 33.1158 66.6964 33.0915 66.7011 33.068C66.7058 33.0445 66.7176 33.023 66.7348 33.0064C66.7521 32.9897 66.774 32.9788 66.7977 32.975C66.8213 32.9712 66.8456 32.9747 66.8672 32.9851C67.5108 33.2511 68.1747 33.4652 68.8525 33.6253C69.6102 33.8603 70.2505 34.3008 70.9788 34.6004C71.6769 34.7978 72.3308 35.1268 72.9054 35.5695C73.5112 36.0517 74.1469 36.495 74.8086 36.897C75.0724 37.0434 75.3204 37.2166 75.5487 37.4139C75.6469 37.487 75.741 37.5654 75.8306 37.6489C76.098 37.9067 76.3825 38.1461 76.6823 38.3655L78.1214 39.6284C78.2501 39.7268 78.3989 39.7958 78.5573 39.8303C78.7157 39.8648 78.8797 39.8641 79.0377 39.8281C79.8291 39.4768 80.508 38.9137 80.9995 38.201C81.0877 38.0659 81.91 37.1907 82.0862 37.0263C82.639 36.6472 83.2295 36.3264 83.8484 36.0688C84.1655 35.8867 85.0877 35.3463 84.3946 35.0703C83.9247 34.8823 83.1787 35.5049 82.7676 35.7164C82.2224 35.9287 81.7266 36.2505 81.3109 36.6621C80.8233 37.2495 80.6765 38.0072 79.8953 38.248C79.482 38.4132 79.0581 38.5505 78.6265 38.6592C78.5127 38.6702 78.3979 38.6559 78.2902 38.6173C78.1826 38.5787 78.0848 38.5168 78.0039 38.436C77.7337 38.1364 76.6823 37.2318 76.8292 36.9264C77.07 36.3801 78.0979 35.8632 78.4386 35.411C78.6853 35.082 78.697 34.9587 79.026 34.7707C79.4604 34.6029 79.9143 34.4904 80.3769 34.4359C80.6354 34.3772 82.3153 33.9308 83.1846 33.5901C83.772 33.3492 83.5312 34.0365 82.0862 34.5064C81.5282 34.6885 81.211 35.2994 80.7822 35.6812C80.1642 36.2194 79.4976 36.6992 78.791 37.1144C78.4033 37.3552 77.9217 38.0424 78.7323 38.0307C79.1317 38.0307 79.7543 37.4433 80.1009 37.2377C80.6633 36.9209 81.1776 36.5253 81.6281 36.063C82.0518 35.6121 82.5315 35.2174 83.0554 34.8882C83.537 34.6121 83.9952 34.5651 84.1832 34.0189C84.3711 33.4726 84.3006 33.3081 84.8645 32.9557C85.3017 32.6829 85.6974 32.3486 86.0393 31.963C86.3036 31.6928 87.1847 31.5636 87.3198 31.3345C87.5312 30.9469 86.9908 30.7472 86.6737 30.7472C86.0863 30.6943 85.7867 31.082 85.4049 31.4285C84.9919 31.7566 84.5561 32.0549 84.1009 32.3213C83.7769 32.5415 83.4303 32.7266 83.0671 32.8735C81.7866 33.3316 79.2315 33.7545 77.9569 34.759C77.4811 35.1408 77.1346 35.9983 76.559 36.2744C76.1125 36.4859 75.5428 36.0395 75.0964 35.687C75.0496 35.6484 75.0119 35.6 74.9861 35.5452C74.9602 35.4903 74.9468 35.4305 74.9468 35.3698C74.9468 35.3092 74.9602 35.2493 74.9861 35.1945C75.0119 35.1397 75.0496 35.0912 75.0964 35.0527C75.6623 34.6037 76.2701 34.2103 76.9114 33.8779C77.5399 33.5313 78.421 33.7545 78.979 33.3199C79.2668 33.0967 79.4136 32.7325 79.7308 32.5152C80.048 32.2978 80.5003 32.0394 80.9056 31.7868C81.5705 31.3966 82.2917 31.1113 83.0436 30.941C83.2157 30.8869 83.4002 30.8869 83.5723 30.941C83.7157 30.966 83.8614 30.9758 84.007 30.9704C84.4181 30.9116 84.6413 30.5357 84.8939 30.2714C85.2372 29.8819 85.6633 29.5742 86.141 29.3709C86.6187 29.1676 87.1359 29.0739 87.6546 29.0966C88.148 29.2302 88.622 29.4277 89.0643 29.684C89.7398 29.9698 90.3987 30.2934 91.0379 30.6532C91.2963 30.7941 93.1466 31.8279 93.3874 32.0218C96.2656 34.0835 96.5299 34.6826 100.865 36.3331C102.204 36.8442 103.802 38.0013 104.131 37.831C104.377 37.7135 103.99 37.085 103.514 36.9205C103.391 36.8735 99.0498 34.6767 98.4389 34.4535C97.9807 34.2891 95.4198 32.4153 95.2201 32.3037C94.7234 32.0193 94.243 31.7075 93.781 31.3698C92.8595 30.7102 91.8895 30.1211 90.8793 29.6076C90.1157 29.2728 89.3286 28.8147 88.8293 28.5915C88.5366 28.4002 88.2049 28.2767 87.8584 28.23C87.5119 28.1832 87.1593 28.2144 86.8264 28.3213C86.2769 28.4835 85.7572 28.7334 85.2874 29.0614C84.841 29.402 84.4651 29.8367 84.0128 30.1774C83.4666 30.5944 83.1611 30.5063 82.5091 30.5239C82.1097 30.5239 81.2228 31.0173 81.2228 30.8646C81.2228 30.5651 82.3447 29.8602 82.5737 29.7486C82.9922 29.5862 83.3766 29.3472 83.7074 29.0437C83.9928 28.5533 84.214 28.0282 84.3652 27.4813C84.6002 26.9585 85.8455 25.3315 85.2111 24.9262C84.7177 24.609 84.6237 25.2316 84.4181 25.6017C84.142 26.1127 83.8307 26.6179 83.5723 27.1289C83.3953 27.6208 83.1307 28.0765 82.7911 28.474C82.3619 28.7033 81.8899 28.8413 81.4048 28.8793C80.6589 29.0437 79.5076 29.1612 78.8967 29.3727C77.8455 29.72 76.8719 30.2686 76.0303 30.988C75.7425 31.3228 75.4018 31.6106 75.1199 31.9572C74.9961 32.0818 74.8948 32.2269 74.8203 32.3859C74.8005 32.4667 74.8086 32.5518 74.8431 32.6275C74.8777 32.7032 74.9367 32.765 75.0107 32.803C75.0846 32.841 75.1693 32.853 75.2509 32.837C75.3325 32.821 75.4064 32.778 75.4606 32.7149C75.8457 32.2251 76.2679 31.7655 76.7234 31.3404C77.3427 30.7876 78.0572 30.3517 78.8321 30.054C79.2727 29.9307 79.8894 30.0129 80.1185 29.9189C80.189 29.9189 82.0451 29.1495 81.3461 29.7192C80.5143 30.3904 79.7876 31.1823 79.1904 32.0688C78.791 32.3742 78.6618 32.6209 78.1625 32.7795C77.6632 32.9381 77.2344 32.7795 76.7998 32.9733C75.9872 33.3465 75.2365 33.8417 74.5736 34.4418C73.6397 35.3228 72.6 34.3243 71.6719 33.8544C70.9612 33.4726 71.3371 33.3434 71.3665 32.5915C71.484 29.9659 73.2637 30.7706 75.161 29.3374C75.4429 29.126 75.8188 28.7501 75.2902 28.5503C75.0318 28.4564 74.462 29.1025 74.1566 29.2435C73.5959 29.5285 73.0047 29.7492 72.3944 29.9013C72.0009 30.0012 71.4605 30.1187 71.2197 30.4887C70.8379 31.1348 70.9318 33.0086 70.0449 33.2435C69.4928 33.3845 68.7468 32.7677 68.2828 32.615C67.6954 32.4271 67.108 32.615 66.5206 32.3096C65.8216 31.9513 65.7042 31.5577 64.5118 31.499C64.0577 31.4592 63.6183 31.3188 63.2254 31.0878C63.0492 30.9938 62.5323 30.9351 62.3267 30.7295C62.0213 30.4123 62.0741 30.4887 62.5147 30.2009C63.0492 29.8485 63.8656 29.6429 64.3121 29.1847C64.7585 28.7266 64.7408 28.0922 64.9993 27.6105C65.3282 27.0232 65.9274 26.7471 66.2974 26.2067C66.8848 25.355 65.2166 26.1245 64.964 26.3007C64.2357 26.8058 63.942 28.0628 63.3253 28.7207C62.9846 29.0907 61.3105 30.2185 61.011 30.0952C60.4647 29.8778 60.8465 29.5078 61.0756 29.3022C61.405 28.9793 61.6666 28.5939 61.8451 28.1685C62.3118 27.396 62.9852 26.7694 63.7893 26.3594C64.2063 26.1068 64.4354 25.6722 64.8172 25.3667C65.199 25.0613 65.6337 24.9203 65.992 24.6325C66.1858 24.4798 66.2798 24.2037 66.4619 24.0451C66.7705 23.8691 67.1091 23.7516 67.4604 23.6986C68.4355 23.4108 70.6499 23.0583 71.4781 22.4357C72.1653 21.9188 72.5706 21.167 73.3225 20.7264C73.7498 20.4101 74.2181 20.1532 74.7146 19.9628C75.1551 19.8454 76.8468 19.4636 77.1581 19.3285C77.3402 19.2462 79.4195 18.0127 79.5076 18.3769C79.5722 18.6236 79.302 18.9643 79.1963 19.1816C79.0491 19.4333 78.8821 19.6729 78.697 19.8982C77.9217 20.6266 77.0935 21.6604 77.3049 21.8131C77.5164 21.9658 78.3387 21.3902 79.0318 20.5032C79.7259 19.8794 80.2564 19.0949 80.5766 18.2183C80.8879 17.6309 81.1288 17.5135 81.957 17.0435C82.4722 16.7697 83.0185 16.5587 83.584 16.415C85.2581 15.9569 87.1847 14.1243 86.844 13.9187C86.5033 13.7131 84.7294 15.1933 84.0187 15.4165C83.7395 15.516 83.4527 15.5926 83.1611 15.6456C82.4637 15.7714 81.7912 16.0095 81.1699 16.3504C80.8527 16.4973 80.0715 16.9378 79.584 17.1728C78.5074 17.7478 77.3881 18.2387 76.2359 18.6412C75.4743 18.8092 74.7292 19.0451 74.0097 19.3461C73.2424 19.6953 72.5409 20.1742 71.9363 20.7617C71.296 21.4665 71.0963 21.9776 68.829 22.5238C68.2416 22.6589 67.6543 22.841 67.1256 23.0231C66.8026 23.1288 65.4633 23.8219 67.014 22.7C67.431 22.4005 68.5882 21.5958 68.7057 21.0906C68.8421 20.6721 69.0401 20.2761 69.293 19.9158C70.1859 19.2227 70.9788 18.2594 71.9656 17.7132C72.4238 17.4606 74.509 14.9055 74.7968 14.741C75.2996 14.5026 75.7744 14.209 76.2124 13.8658C76.525 13.4807 76.8819 13.1338 77.2756 12.832C78.1919 12.2916 78.9085 11.5104 79.9951 11.3401C80.312 11.311 80.6175 11.2069 80.8861 11.0363C81.1548 10.8658 81.3789 10.6336 81.54 10.3592C81.8043 9.8775 82.2037 9.56619 82.4621 9.06691C82.8087 8.38555 83.1435 8.30919 83.8307 8.0155C84.3865 7.75593 84.8994 7.41328 85.3521 6.99933C86.333 6.20049 86.7618 6.69977 87.9659 6.61753C89.3345 6.51768 90.2626 7.7923 91.5254 8.16822C91.9951 8.26151 92.4484 8.42382 92.8705 8.64987C93.341 8.93676 93.7959 9.24851 94.2333 9.58381C94.7156 9.92095 95.2178 10.2289 95.737 10.506C96.1652 10.8265 96.5606 11.1885 96.9176 11.5868C97.969 12.4385 98.9676 13.7014 100.084 14.4826C100.636 14.8761 101.258 15.1463 101.805 15.5457C102.061 15.726 102.29 15.9415 102.486 16.186C103.279 17.2021 105.705 20.1919 105.969 20.5091C106.233 20.8263 107.949 23.3168 108.466 24.098C108.982 24.8792 110.075 25.2728 110.762 25.8601C111.185 26.2537 113 28.0687 113.17 27.2757C113.241 26.935 111.761 26.3124 110.656 25.2199C109.824 24.4546 109.039 23.6386 108.307 22.7764C107.532 21.6016 107.068 20.1097 104.971 18.0773C104.695 17.8071 104.442 17.0788 104.794 17.2256C104.95 17.2882 105.096 17.3711 105.229 17.4723C107.778 19.4753 109.505 19.5693 110.868 20.0979C111.762 20.3809 112.628 20.7426 113.458 21.1787C113.899 21.4783 116.002 23.0818 116.489 23.2698C117.341 23.6046 117.452 24.6619 118.034 24.4446C118.615 24.2272 113.241 20.2389 112.748 19.9805C112.08 19.5637 111.367 19.2266 110.621 18.976C109.726 18.8128 108.841 18.5951 107.972 18.324C107.702 18.2124 106.21 17.1845 105.952 17.0435C105.493 16.7612 104.997 16.5456 104.477 16.4033C104.236 16.4033 102.415 14.788 101.887 14.371C101.64 14.1713 98.1746 11.9333 97.599 11.2872C97.349 10.9161 97.0417 10.587 96.6885 10.3122L95.361 9.40172C94.5183 8.78243 93.6396 8.21363 92.7296 7.69831C91.9248 7.28127 90.8558 7.19904 90.1275 6.61166C89.8264 6.28536 89.4459 6.04253 89.0232 5.9068C88.5679 5.78103 88.1018 5.69843 87.6311 5.6601C86.7153 5.55057 85.7873 5.70761 84.9585 6.11239C84.236 6.5588 83.6075 6.99933 82.9144 7.49273C82.4269 7.83929 81.352 8.59113 80.7294 8.29744C80.3182 8.10361 79.9834 7.2989 79.7367 6.94059C79.4972 6.57684 79.1949 6.25861 78.8439 6.00078C78.1045 5.59037 77.3146 5.27837 76.4943 5.07272C75.996 4.85426 75.4632 4.72503 74.9202 4.69092C74.5793 4.67811 74.2552 4.54008 74.0097 4.30325C73.5457 3.8216 73.1756 3.12849 72.5706 2.79956C71.657 2.36577 70.7174 1.98912 69.7571 1.67178C68.8819 1.33698 68.1359 0.914062 67.1374 0.914062C66.6578 0.919711 66.1859 1.03546 65.7582 1.25239C65.3304 1.46931 64.9583 1.78161 64.6704 2.16518C64.3087 2.66621 63.854 3.09297 63.3311 3.42218C61.5396 4.69159 59.9223 6.19044 58.5205 7.8804C57.4882 9.22188 56.3232 10.4558 55.0432 11.5633C54.726 11.8276 54.2032 12.1507 54.0681 12.2505C52.888 13.073 51.6093 13.7439 50.2619 14.2476C49.7335 14.3706 49.2484 14.6345 48.8581 15.0112C48.6642 15.2873 48.6583 15.6573 48.4645 15.951C48.2436 16.2317 47.9891 16.4842 47.7068 16.7029C47.1781 17.161 46.532 17.4782 46.0328 17.9599C45.5335 18.4415 45.4806 18.7 44.7346 18.4533C43.7243 18.1185 43.1076 18.6354 42.5026 19.4048C42.0444 19.9922 42.1913 20.1802 41.4512 20.5091C40.9637 20.7264 40.3469 20.885 40.0591 21.3725C39.8829 21.6662 39.8946 21.9599 39.6362 22.2242C39.3777 22.4886 39.2015 22.4416 39.0488 22.6002C38.6729 22.9409 38.7551 23.5694 38.3616 23.8865C37.968 24.2037 36.9988 24.1861 36.4761 24.3388C35.8182 24.5385 35.1721 24.8029 34.5201 25.0319C33.8529 25.251 33.2484 25.6278 32.7579 26.1303C32.3644 26.5474 31.9356 26.9409 31.5832 27.3815C31.2779 27.8316 30.9484 28.265 30.5964 28.6796C30.1617 29.1025 29.8034 29.6076 29.3394 29.9953C28.8754 30.383 28.2645 30.6825 27.8004 31.1348C27.3994 31.5002 26.9485 31.8067 26.4612 32.0453C25.8961 32.3684 25.3614 32.7419 24.8635 33.1613C24.4522 33.6038 24.0168 34.0234 23.5596 34.4183C22.3752 35.2004 21.1276 35.8822 19.8297 36.4565C19.536 36.5975 17.9618 37.2083 17.9266 37.5255C17.8913 37.8427 19.0543 37.7664 19.3245 37.6371ZM55.4485 12.3269C57.5102 10.6587 58.5792 8.80259 59.9243 7.49273C60.3766 7.05807 60.8641 6.6469 61.3105 6.20049C61.623 5.81821 61.9564 5.45348 62.3091 5.10796C62.8845 4.76149 63.4306 4.36859 63.942 3.9332C64.3356 3.48679 64.3297 3.50441 64.3355 3.50441C64.5881 3.45742 64.1006 4.36199 63.9831 4.49121C63.7188 4.77903 63.6953 5.07859 63.3957 5.33704C63.196 5.525 63.1725 5.81282 62.8965 6.1535C62.4546 7.11161 62.0625 8.09188 61.7217 9.09041C61.6557 9.2577 61.5751 9.41887 61.4809 9.57206C61.226 9.84859 60.9013 10.0515 60.5411 10.1594C60.4236 10.2064 60.3061 10.2534 60.2004 10.3063C59.0256 10.8526 58.4382 11.5692 57.7569 12.7968L57.7099 12.879L57.7921 12.926C57.8341 12.9531 57.8831 12.9673 57.9331 12.9671C58.2033 12.9671 58.4089 12.5677 58.591 12.2153C58.6325 12.1263 58.6796 12.0399 58.7319 11.9568C58.9249 11.6543 59.1695 11.3879 59.4544 11.1697C59.8197 10.9252 60.2144 10.7278 60.6292 10.5824C60.9862 10.4521 61.3303 10.2889 61.6571 10.0948C61.9398 9.91021 62.1479 9.63132 62.2445 9.30774L62.3267 9.03754C62.4324 8.70274 62.8554 7.46924 63.1079 6.65278C63.2047 6.33361 63.39 6.04845 63.6424 5.83044C63.9062 5.60495 64.1375 5.34403 64.3297 5.0551C64.474 4.75109 64.6731 4.47631 64.9171 4.24451C65.1638 3.96257 65.8392 2.25917 66.0918 2.07708C66.4736 1.83038 67.1197 1.14314 67.854 1.55431C68.2416 1.76577 68.4413 2.14169 68.9289 2.14169C69.5867 2.14169 70.6147 2.18281 70.2975 2.67033C69.9803 3.15786 69.0875 3.0815 69.2402 3.36932C69.3929 3.65713 70.4149 3.16961 70.6558 3.02863C71.2432 2.65858 71.7131 2.91703 72.3063 3.22247C72.8331 3.54682 73.2711 3.99691 73.5809 4.53233C73.8452 4.89651 74.2094 5.87156 74.8321 5.83632C74.9613 5.83632 74.8321 5.67772 74.8732 5.55437C74.9378 5.18432 76.2594 6.14175 77.1052 6.0419C77.738 6.15364 78.3275 6.43825 78.8086 6.86423C79.3079 7.45161 80.1479 8.10948 80.3123 8.90245C80.4122 9.39585 80.4357 9.48983 80.2418 9.84226C80.048 10.1947 80.0186 10.4296 79.1082 10.8114C79.045 10.8366 78.975 10.8387 78.9105 10.8172C78.846 10.7957 78.7912 10.752 78.7558 10.694C78.5208 10.2828 78.2036 9.64842 77.8923 8.99643C77.581 8.34443 77.6339 8.20934 76.7175 7.6572L76.6353 7.60433C75.9303 7.14525 75.1781 6.76322 74.3915 6.46481C74.3632 6.46259 74.3349 6.46933 74.3107 6.4841C74.2864 6.49886 74.2674 6.52088 74.2564 6.54705C74.1448 6.86423 74.5031 7.05807 74.7909 7.21079L74.9613 7.31064C75.1383 7.41176 75.3253 7.49443 75.5193 7.55734C75.6603 7.61608 75.813 7.66895 75.9363 7.73356C76.2869 7.93309 76.6243 8.15478 76.9466 8.3973C77.0054 8.44429 77.0759 8.47953 77.1228 8.52652C77.6157 9.19928 77.9782 9.95831 78.1919 10.7644C78.2271 10.9876 78.3093 11.158 78.1449 11.3518C77.7045 11.7422 77.2374 12.1014 76.7469 12.4267C76.4591 12.6852 76.1595 12.926 75.8365 13.161C75.7751 13.2085 75.7018 13.2381 75.6247 13.2468C75.5476 13.2554 75.4696 13.2426 75.3992 13.2099C75.3288 13.1771 75.2688 13.1256 75.2258 13.0611C75.1827 12.9965 75.1583 12.9213 75.1551 12.8438C75.151 12.6243 75.1072 12.4074 75.0259 12.2035C74.8027 11.7689 73.6514 10.6998 73.6103 10.9465C73.5281 11.4634 74.0038 11.4164 74.4796 12.2211C74.6262 12.5951 74.6981 12.9943 74.6911 13.3959C74.7498 14.3651 73.2872 15.1228 73.0699 15.0641C72.741 14.976 72.7938 13.0435 73.0112 12.4209C73.111 12.133 73.2872 11.9744 73.2637 11.6044C73.2524 11.3833 73.2524 11.1618 73.2637 10.9407C73.3027 10.549 73.2889 10.1539 73.2226 9.7659C73.0635 9.32978 72.7556 8.96373 72.3533 8.73211C72.203 8.62601 72.0598 8.51025 71.9245 8.38555C71.6788 8.12175 71.4801 7.81779 71.3371 7.48686C71.1785 7.16967 71.0552 6.89948 70.8144 6.89948C70.7738 6.89667 70.7334 6.90801 70.7002 6.93157C70.667 6.95512 70.643 6.98944 70.6323 7.0287C70.5148 7.36938 71.2197 8.3738 72.6 9.37822C72.9583 9.64842 72.8937 11.0405 72.788 11.5515C72.706 11.8098 72.5916 12.0565 72.4473 12.2858C72.2064 13.1089 72.1051 13.9666 72.1477 14.8232C72.2041 15.0703 72.2016 15.3272 72.1404 15.5731C72.0792 15.819 71.961 16.0471 71.7953 16.2388L70.1389 17.9481C70.0839 18.0006 70.0162 18.038 69.9425 18.0566C69.8688 18.0752 69.7915 18.0744 69.7182 18.0543C69.6449 18.0342 69.578 17.9955 69.5241 17.9419C69.4702 17.8883 69.4311 17.8216 69.4105 17.7484C69.3002 17.2747 69.1008 16.8262 68.8231 16.4268C68.4684 16.0468 68.1406 15.6425 67.8422 15.2168C67.7071 14.9583 67.8011 14.8115 67.5896 14.6C67.3782 14.3886 67.202 14.3298 67.1902 14.6C67.1902 15.1463 67.8363 16.1096 68.1535 16.4855C68.5643 16.9662 68.8382 17.5484 68.9465 18.1713C69.0415 18.4848 69.0519 18.8178 68.9766 19.1366C68.9013 19.4554 68.743 19.7485 68.5177 19.9863C68.2864 20.2162 68.0687 20.4594 67.8657 20.7147C67.7741 20.9614 67.6641 21.2009 67.5368 21.4313C67.1432 21.9306 66.5147 22.3006 66.0801 22.7823C65.9215 22.9526 65.1579 23.6692 64.7937 24.145C64.7044 24.2609 64.5973 24.362 64.4765 24.4446C64.1887 24.6384 63.9244 24.8557 63.6248 25.0319C63.3971 25.1498 63.1756 25.2791 62.9611 25.4196C62.7555 25.5841 62.6615 25.8249 62.4794 26.007C62.3123 26.1614 62.0931 26.2471 61.8656 26.2471C61.6381 26.2471 61.4189 26.1614 61.2518 26.007C60.776 25.6076 60.3237 25.1377 59.8068 24.7559C59.3552 24.4444 58.8657 24.1918 58.3501 24.004C58.308 23.9867 58.2707 23.9595 58.2415 23.9247C58.2122 23.8898 58.1917 23.8484 58.1819 23.804C58.1721 23.7595 58.1732 23.7134 58.1851 23.6695C58.197 23.6255 58.2194 23.5851 58.2503 23.5517C59.0844 22.6295 60.1064 21.8366 60.7819 20.8087C61.5337 19.6809 61.4809 18.4591 62.1799 17.2844C62.5721 16.7745 62.9917 16.2862 63.4369 15.8218C63.5191 15.7308 63.5819 15.6239 63.6213 15.5078C63.6607 15.3916 63.6759 15.2686 63.6659 15.1463C63.6013 14.7998 63.2665 15.1463 63.1667 15.2344C62.9082 15.4106 62.7085 15.8218 62.4912 16.0509C62.2592 16.2662 62.054 16.5088 61.8803 16.7734C61.5185 17.3636 61.223 17.992 60.9992 18.6471C60.8751 19.2993 60.6533 19.929 60.3414 20.515C59.8899 21.0593 59.3775 21.55 58.8142 21.9776C58.3208 22.424 58.1915 22.9761 57.6746 23.3814C57.1578 23.7867 56.5762 23.6986 55.9125 23.5106C54.6731 23.1641 53.563 22.5767 52.3001 22.1655C51.2076 21.7955 50.1444 21.4137 49.0401 21.0554C48.5323 20.8075 48.0634 20.4869 47.6481 20.1038C47.6169 20.0732 47.5933 20.0358 47.5791 19.9945C47.5649 19.9532 47.5605 19.9092 47.5662 19.866C47.5719 19.8227 47.5875 19.7813 47.6119 19.7451C47.6363 19.7089 47.6688 19.6789 47.7068 19.6574C48.3031 19.1959 48.8502 18.6743 49.3397 18.1008C49.9459 17.6322 50.4345 17.0289 50.767 16.3387C51.1731 15.5767 51.7526 14.9207 52.4587 14.4238C52.817 14.0831 55.0784 12.6617 55.4485 12.3269ZM47.6128 17.4606C48.2567 17.0943 48.7809 16.5497 49.1224 15.8923C49.2316 15.5829 49.416 15.3055 49.659 15.0851C49.902 14.8646 50.196 14.7081 50.5145 14.6294C50.8787 14.4767 52.676 13.5251 52.5586 13.8071C52.353 14.277 51.1723 14.5707 50.6848 15.2579C50.2913 15.8159 50.0974 16.2741 49.7098 16.8497C49.1588 17.5849 48.5196 18.2497 47.8066 18.8292C47.2956 19.3343 46.72 19.8689 46.2736 19.0524C45.9035 18.4239 47.1488 17.7895 47.6128 17.4606Z" fill="#002638"/>
<path d="M120.295 28.2099C120.512 28.7972 121.064 29.0909 121.616 29.4257C122.169 29.7605 123.155 30.4008 123.966 30.8648C124.582 31.3857 125.247 31.8459 125.951 32.2393C126.539 32.439 127.614 33.4434 128.301 33.8722C128.378 33.9225 128.458 33.9677 128.542 34.0073C128.923 34.1835 129.481 34.3362 129.622 34.3891C130.204 34.505 130.724 34.8286 131.085 35.2995C131.479 35.928 132.36 38.3304 132.847 38.0015C133.335 37.6726 132.847 36.4743 132.7 36.1747C132.415 35.5587 132.035 34.9917 131.573 34.4948C131.195 34.1238 130.731 33.8533 130.222 33.7077C129.85 33.4831 129.456 33.2961 129.047 33.1497C128.35 32.9267 127.703 32.5695 127.144 32.0983C126.075 31.0117 125.646 30.9823 123.443 29.831L122.456 29.2848C121.851 29.0125 121.312 28.6116 120.876 28.11C120.718 27.8868 120.6 27.6401 120.453 27.411C120.236 27.0703 119.402 26.2363 119.132 26.5593C118.862 26.8824 119.972 27.3112 120.295 28.2099Z" fill="#002638"/>
<path d="M150.922 61.0272H149.582C152.161 55.3531 150.017 49.2796 146.969 45.2971C144.361 41.8962 140.184 38.9064 136.731 39.8873C136.122 40.0714 135.561 40.3858 135.086 40.8088C134.611 41.2318 134.234 41.7532 133.982 42.3367C132.613 45.1561 133.048 49.908 134.264 52.8684C135.479 55.8288 138.816 59.4177 142.651 61.0272H127.691L127.103 59.6997C126.202 57.5786 125.429 55.4053 124.789 53.1915C125.412 53.3815 126.059 53.4804 126.71 53.4852C127.414 53.4961 128.113 53.365 128.765 53.0995C129.417 52.8341 130.008 52.4398 130.504 51.9404C132.407 50.0138 132.531 47.0064 130.816 44.2692C127.955 39.7111 120.284 39.3704 116.812 40.1986L117.764 44.1693C117.958 44.1223 118.175 44.0871 118.41 44.0519C119.428 49.8581 121.04 55.5445 123.221 61.0213H111.738C114.003 59.8342 116.55 59.2859 119.103 59.4354L119.409 55.3648C116.862 55.205 114.31 55.575 111.914 56.4515C111.526 55.2356 111.133 53.8846 110.774 52.469C112.193 52.1686 113.632 51.9723 115.08 51.8816L114.786 47.8111C113.155 47.9227 111.533 48.1504 109.934 48.4925C109.73 47.2796 109.599 46.0557 109.541 44.8272C111.367 44.3984 113.318 44.046 114.898 43.8169L114.31 39.7757C110.95 40.2633 106.41 41.1972 103.737 42.3661L105.376 46.1077L105.517 46.049C105.956 50.2601 106.87 54.4079 108.243 58.4133C107.806 58.7273 107.386 59.0646 106.986 59.4236L108.436 61.0389H105.229L104.712 60.0756C103.111 56.9553 102.171 53.5378 101.952 50.0373L102.68 49.3794L101.834 48.4396C101.723 46.4542 101.723 44.5276 101.729 42.7479V41.2559H97.6169C97.6169 41.72 97.6169 42.2075 97.6169 42.7068C97.6169 44.3749 97.6169 46.231 97.7109 48.1811C97.4046 48.4049 97.087 48.6127 96.7593 48.8038C95.966 49.3072 95.0594 49.6041 94.122 49.6672C93.8855 46.9329 93.8169 44.1866 93.9164 41.4439L89.8341 41.2735C89.7281 44.2694 89.8105 47.269 90.0808 50.2546C90.1159 51.2442 90.5377 52.1805 91.2555 52.8626C91.8356 53.3261 92.5417 53.6045 93.282 53.6614C93.5493 53.6899 93.8179 53.7036 94.0867 53.7025C95.5028 53.6804 96.8951 53.3348 98.1573 52.6922C98.5474 55.5735 99.3754 58.3783 100.613 61.0096H88.3245C87.7724 55.4412 87.4845 47.4469 88.3245 42.043L84.3009 41.4439C83.9471 43.8426 83.7509 46.2619 83.7136 48.6863C82.252 48.7554 80.7952 48.9024 79.3493 49.1268C79.455 45.8375 79.5666 43.4175 79.6782 42.0313L75.6077 41.7023C75.4785 43.3235 75.3493 46.1899 75.2318 50.1548C74.6321 50.3644 74.0439 50.6056 73.4696 50.8772L75.1026 54.2429C75.0556 56.2753 75.0086 58.5132 74.9616 60.9391V61.0448H72.1245C72.4652 55.0594 71.2552 46.3603 69.822 41.2148L65.2228 42.1135C63.0436 44.5276 61.0054 48.8331 59.537 53.0212C58.8791 53.1915 58.2153 53.3677 57.5399 53.5204L58.3211 56.892C57.9395 58.2576 57.6375 59.6442 57.4165 61.0448H56.5237L56.3886 60.663C55.7483 59.0653 54.368 50.5248 57.5634 44.0754L58.4033 42.3778L55.0141 40.3866L53.9333 41.1619C51.4898 42.9241 49.293 45.6613 47.5191 48.2986C47.6307 46.2663 47.7952 44.2516 48.1065 42.3308L44.0536 41.7023C44.0242 41.8844 44.0007 42.0665 43.9772 42.2427C40.312 46.2252 36.8288 52.3516 34.5791 58.7893L38.4382 60.1226C39.705 56.5389 41.3512 53.1008 43.3487 49.8669L43.2606 52.0167C43.2078 53.4441 43.1549 54.7951 43.0785 56.1284L46.8554 57.3032C47.061 56.9684 47.3312 56.4867 47.666 55.8876C48.9101 53.6163 50.2829 51.4178 51.7776 49.303C51.2085 53.1897 51.3738 57.1487 52.2652 60.9743H29.1282C31.002 59.7995 33.0989 57.6556 35.002 53.8846C36.6996 50.4719 36.5292 44.3279 35.5131 42.137L31.8067 43.8463C32.2942 44.9036 32.5057 49.7201 31.3427 52.0696C29.0754 56.6159 26.6789 57.8847 25.4688 58.2371C24.8607 58.4611 24.1896 58.4422 23.5951 58.1842C23.0077 57.8318 22.5378 55.0065 23.3308 52.6805C24.5643 49.0916 29.2633 45.2736 31.3015 45.0915L30.9315 41.021C26.9314 41.4439 21.04 46.7303 19.4423 51.4294C18.5084 54.1548 18.3498 58.7658 20.6171 61.0565H17.1574L17.6449 60.5808C14.2087 57.0565 13.1397 53.6614 12.7932 51.0769C15.3835 50.2546 20.1119 48.1929 22.6553 43.7934L19.131 41.7493C17.3101 44.9036 13.6977 46.4484 11.683 47.118C12.4172 45.9432 13.1926 44.7685 14.0325 43.6642L10.7549 41.2324C7.1778 46.0607 4.68143 51.2179 2.03234 56.6394C1.55069 57.5851 0.434662 60.3517 0 61.7203H0.834081C0.872041 61.7622 0.918236 61.7958 0.96978 61.8191C1.02132 61.8423 1.07711 61.8547 1.13365 61.8554H13.3512C13.78 62.3782 14.2264 62.8892 14.7139 63.3943L16.2998 61.8554H21.7331C22.5822 62.2952 23.5258 62.521 24.482 62.5133C25.1919 62.5109 25.8979 62.4081 26.579 62.2078C26.9191 62.1119 27.2526 61.9942 27.5775 61.8554H109.224L109.758 62.4428C109.993 62.2254 110.24 62.0316 110.481 61.8554H148.073L148.925 62.3664C149.024 62.1961 149.118 62.0257 149.212 61.8554H150.975C151.029 61.8562 151.083 61.8461 151.134 61.8258C151.184 61.8055 151.23 61.7753 151.269 61.7371C151.308 61.6988 151.339 61.6532 151.36 61.6029C151.381 61.5527 151.392 61.4987 151.392 61.4442C151.392 61.3847 151.38 61.3258 151.356 61.2714C151.331 61.217 151.296 61.1684 151.251 61.1289C151.207 61.0894 151.154 61.0599 151.098 61.0424C151.041 61.0248 150.981 61.0196 150.922 61.0272ZM127.356 46.4484C128.026 47.5174 128.12 48.5453 127.603 49.074C127.086 49.6026 126.087 49.4969 125.03 48.8508L124.02 50.4954C123.385 48.1459 122.845 45.8669 122.557 44.1282C124.584 44.4395 126.545 45.162 127.356 46.4484ZM4.59332 61.0272C4.90424 60.1418 5.26107 59.2733 5.66235 58.4251C6.70789 56.2694 7.73581 54.1607 8.81072 52.1107C9.34192 55.3567 10.6699 58.4203 12.6757 61.0272H4.59332ZM79.0674 61.0272C79.1144 58.196 79.1731 55.6174 79.226 53.309C80.7086 53.0356 82.2078 52.861 83.7136 52.7862C83.7723 55.4471 83.9485 58.243 84.2246 61.0565H79.0674V61.0272ZM66.9614 46.7303C67.2493 48.2634 67.5018 49.908 67.7016 51.5703C66.6003 51.5827 65.502 51.6869 64.4181 51.8816C65.126 50.099 65.9766 48.3763 66.9614 46.7303ZM62.7969 56.4162C64.5164 55.9235 66.2948 55.6667 68.0834 55.6526C68.1974 57.4521 68.1974 59.257 68.0834 61.0565H61.6222C61.9089 59.4782 62.2914 57.9187 62.7675 56.3869L62.7969 56.4162ZM143.985 61.0565L145.03 57.5792C142.093 56.6923 138.986 53.5792 138.07 51.3471C136.819 48.2869 137.189 44.3632 137.894 43.8404C138.886 43.5878 141.453 44.8096 143.767 47.8111C144.972 49.3794 148.643 54.9125 145.424 60.2988L146.693 61.0565H143.985Z" fill="#002638"/>
</svg>
