<svg width="19" height="19" viewBox="0 0 19 19" fill="none" xmlns="http://www.w3.org/2000/svg">
<path d="M8.73817 9.34648C9.97104 9.34648 10.9705 8.34703 10.9705 7.11416C10.9705 5.88128 9.97104 4.88184 8.73817 4.88184C7.5053 4.88184 6.50586 5.88128 6.50586 7.11416C6.50586 8.34703 7.5053 9.34648 8.73817 9.34648Z" fill="#000"/>
<path d="M4.24686 3.75836C5.20839 3.75836 5.98786 2.97889 5.98786 2.01737C5.98786 1.05584 5.20839 0.276367 4.24686 0.276367C3.28533 0.276367 2.50586 1.05584 2.50586 2.01737C2.50586 2.97889 3.28533 3.75836 4.24686 3.75836Z" fill="#000"/>
<path d="M1.20712 9.41948C1.15796 9.59373 1.25494 9.7883 1.4233 9.85414L5.27807 11.3622C5.44643 11.428 5.60791 11.6263 5.63904 11.8044L6.33805 15.8534L6.76716 15.5304C7.34103 15.099 8.25331 15.0607 8.86061 15.4433L10.6422 16.5685C10.6566 16.5705 10.6871 16.5698 10.7008 16.5681L12.13 15.6405L11.4621 13.6361C11.4048 13.4648 11.4969 13.3747 11.6671 13.4353L15.5596 14.781C16.0722 14.9586 16.7093 14.7217 16.9815 14.2523L17.0428 14.1478C17.315 13.678 17.1221 13.1487 16.6117 12.965L4.04739 8.43845C3.87704 8.37686 3.77815 8.18589 3.82597 8.01164L4.51843 5.49072C4.66189 4.96727 4.35168 4.43663 3.82532 4.3053L3.71067 4.2768C3.18427 4.14547 2.63561 4.46154 2.48527 4.98303L1.20712 9.41948Z" fill="#000"/>
<path d="M18.2645 16.0957L16.3286 17.5261C16.2127 17.612 15.9703 17.6192 15.8487 17.5385L14.1526 16.4203C13.7163 16.132 13.0559 16.1288 12.6176 16.414L10.8805 17.5412C10.7469 17.627 10.4757 17.629 10.3414 17.5445L8.53621 16.4045C8.08583 16.1209 7.42578 16.1481 7.0003 16.4681L5.59831 17.5242C5.48236 17.6119 5.24158 17.6202 5.11974 17.5409L3.38302 16.4143C2.9264 16.1173 2.26569 16.1569 1.84741 16.5061L0.166042 17.9084C-0.0298277 18.0715 -0.0560327 18.3624 0.106781 18.5583C0.198481 18.6677 0.329848 18.7244 0.461866 18.7244C0.566035 18.7244 0.671164 18.689 0.757006 18.6173L2.43871 17.2149C2.54518 17.1256 2.76335 17.1128 2.88026 17.1885L4.61732 18.3149C5.0664 18.6068 5.72711 18.5829 6.15358 18.2612L7.55588 17.2051C7.67282 17.1164 7.91881 17.1059 8.04298 17.1849L9.84818 18.3248C10.2874 18.6015 10.9465 18.5976 11.3828 18.3153L13.1199 17.1882C13.2509 17.1036 13.5146 17.1049 13.644 17.1908L15.3401 18.3087C15.7859 18.6038 16.4476 18.5865 16.8774 18.2688L18.8133 16.838C19.018 16.6863 19.0609 16.3971 18.9099 16.1923C18.7585 15.9869 18.4692 15.9437 18.2645 16.0957Z" fill="#000"/>
</svg>
